<mxfile host="app.diagrams.net" modified="2022-09-15T16:32:35.634Z" agent="5.0 (Windows NT 10.0; Win64; x64) AppleWebKit/537.36 (KHTML, like Gecko) Chrome/105.0.0.0 Safari/537.36" etag="X1RlY1eO4Mmd-UzApe3e" version="20.3.0" type="github" pages="8">
  <diagram id="OMi9P-udnUN90HtaRdLu" name="操作流程图">
    <mxGraphModel dx="1422" dy="785" grid="1" gridSize="10" guides="1" tooltips="1" connect="1" arrows="1" fold="1" page="1" pageScale="1" pageWidth="827" pageHeight="1169" math="0" shadow="0">
      <root>
        <mxCell id="0" />
        <mxCell id="1" parent="0" />
        <mxCell id="RWPMWBLEITRf5Ue282e1-1" value="" style="rounded=0;html=1;jettySize=auto;orthogonalLoop=1;fontSize=11;endArrow=block;endFill=0;endSize=8;strokeWidth=1;shadow=0;labelBackgroundColor=none;edgeStyle=orthogonalEdgeStyle;" edge="1" parent="1" source="RWPMWBLEITRf5Ue282e1-2" target="RWPMWBLEITRf5Ue282e1-5">
          <mxGeometry relative="1" as="geometry" />
        </mxCell>
        <mxCell id="RWPMWBLEITRf5Ue282e1-2" value="Lamp doesn&#39;t work" style="rounded=1;whiteSpace=wrap;html=1;fontSize=12;glass=0;strokeWidth=1;shadow=0;" vertex="1" parent="1">
          <mxGeometry x="20" y="20" width="120" height="40" as="geometry" />
        </mxCell>
        <mxCell id="RWPMWBLEITRf5Ue282e1-3" value="Yes" style="rounded=0;html=1;jettySize=auto;orthogonalLoop=1;fontSize=11;endArrow=block;endFill=0;endSize=8;strokeWidth=1;shadow=0;labelBackgroundColor=none;edgeStyle=orthogonalEdgeStyle;" edge="1" parent="1" source="RWPMWBLEITRf5Ue282e1-5" target="RWPMWBLEITRf5Ue282e1-9">
          <mxGeometry y="20" relative="1" as="geometry">
            <mxPoint as="offset" />
          </mxGeometry>
        </mxCell>
        <mxCell id="RWPMWBLEITRf5Ue282e1-4" value="No" style="edgeStyle=orthogonalEdgeStyle;rounded=0;html=1;jettySize=auto;orthogonalLoop=1;fontSize=11;endArrow=block;endFill=0;endSize=8;strokeWidth=1;shadow=0;labelBackgroundColor=none;" edge="1" parent="1" source="RWPMWBLEITRf5Ue282e1-5" target="RWPMWBLEITRf5Ue282e1-6">
          <mxGeometry y="10" relative="1" as="geometry">
            <mxPoint as="offset" />
          </mxGeometry>
        </mxCell>
        <mxCell id="RWPMWBLEITRf5Ue282e1-5" value="Lamp&lt;br&gt;plugged in?" style="rhombus;whiteSpace=wrap;html=1;shadow=0;fontFamily=Helvetica;fontSize=12;align=center;strokeWidth=1;spacing=6;spacingTop=-4;" vertex="1" parent="1">
          <mxGeometry x="30" y="110" width="100" height="80" as="geometry" />
        </mxCell>
        <mxCell id="RWPMWBLEITRf5Ue282e1-6" value="Plug in lamp" style="rounded=1;whiteSpace=wrap;html=1;fontSize=12;glass=0;strokeWidth=1;shadow=0;" vertex="1" parent="1">
          <mxGeometry x="180" y="130" width="120" height="40" as="geometry" />
        </mxCell>
        <mxCell id="RWPMWBLEITRf5Ue282e1-7" value="No" style="rounded=0;html=1;jettySize=auto;orthogonalLoop=1;fontSize=11;endArrow=block;endFill=0;endSize=8;strokeWidth=1;shadow=0;labelBackgroundColor=none;edgeStyle=orthogonalEdgeStyle;" edge="1" parent="1" source="RWPMWBLEITRf5Ue282e1-9" target="RWPMWBLEITRf5Ue282e1-10">
          <mxGeometry x="0.3333" y="20" relative="1" as="geometry">
            <mxPoint as="offset" />
          </mxGeometry>
        </mxCell>
        <mxCell id="RWPMWBLEITRf5Ue282e1-8" value="Yes" style="edgeStyle=orthogonalEdgeStyle;rounded=0;html=1;jettySize=auto;orthogonalLoop=1;fontSize=11;endArrow=block;endFill=0;endSize=8;strokeWidth=1;shadow=0;labelBackgroundColor=none;" edge="1" parent="1" source="RWPMWBLEITRf5Ue282e1-9" target="RWPMWBLEITRf5Ue282e1-11">
          <mxGeometry y="10" relative="1" as="geometry">
            <mxPoint as="offset" />
          </mxGeometry>
        </mxCell>
        <mxCell id="RWPMWBLEITRf5Ue282e1-9" value="Bulb&lt;br&gt;burned out?" style="rhombus;whiteSpace=wrap;html=1;shadow=0;fontFamily=Helvetica;fontSize=12;align=center;strokeWidth=1;spacing=6;spacingTop=-4;" vertex="1" parent="1">
          <mxGeometry x="30" y="230" width="100" height="80" as="geometry" />
        </mxCell>
        <mxCell id="RWPMWBLEITRf5Ue282e1-10" value="Repair Lamp" style="rounded=1;whiteSpace=wrap;html=1;fontSize=12;glass=0;strokeWidth=1;shadow=0;" vertex="1" parent="1">
          <mxGeometry x="20" y="370" width="120" height="40" as="geometry" />
        </mxCell>
        <mxCell id="RWPMWBLEITRf5Ue282e1-11" value="Replace Bulb" style="rounded=1;whiteSpace=wrap;html=1;fontSize=12;glass=0;strokeWidth=1;shadow=0;" vertex="1" parent="1">
          <mxGeometry x="180" y="250" width="120" height="40" as="geometry" />
        </mxCell>
      </root>
    </mxGraphModel>
  </diagram>
  <diagram id="KVRYKjKN5W0XRkQ2hwIq" name="复杂操作流程图">
    <mxGraphModel dx="1422" dy="785" grid="1" gridSize="10" guides="1" tooltips="1" connect="1" arrows="1" fold="1" page="1" pageScale="1" pageWidth="827" pageHeight="1169" math="0" shadow="0">
      <root>
        <mxCell id="0" />
        <mxCell id="1" parent="0" />
        <mxCell id="sohU493tWmFUhHb27Ihu-114" value="start" style="shape=mxgraph.flowchart.terminator;strokeWidth=2;gradientColor=none;gradientDirection=north;fontStyle=0;html=1;" vertex="1" parent="1">
          <mxGeometry x="160" y="520" width="120" height="30" as="geometry" />
        </mxCell>
        <mxCell id="sohU493tWmFUhHb27Ihu-115" value="analyse project&#xa; documentation" style="shape=mxgraph.flowchart.data;strokeWidth=2;gradientColor=none;gradientDirection=north;fontStyle=0;html=1;" vertex="1" parent="1">
          <mxGeometry x="140.5" y="590" width="159" height="80" as="geometry" />
        </mxCell>
        <mxCell id="sohU493tWmFUhHb27Ihu-116" value="create&#xa;material&#xa;specification" style="shape=mxgraph.flowchart.data;strokeWidth=2;gradientColor=none;gradientDirection=north;fontStyle=0;html=1;" vertex="1" parent="1">
          <mxGeometry x="140.5" y="970" width="159" height="80" as="geometry" />
        </mxCell>
        <mxCell id="sohU493tWmFUhHb27Ihu-117" value="check for&#xa;obscurities" style="shape=mxgraph.flowchart.data;strokeWidth=2;gradientColor=none;gradientDirection=north;fontStyle=0;html=1;" vertex="1" parent="1">
          <mxGeometry x="140.5" y="710" width="159" height="80" as="geometry" />
        </mxCell>
        <mxCell id="sohU493tWmFUhHb27Ihu-118" value="obscurities?" style="shape=mxgraph.flowchart.decision;strokeWidth=2;gradientColor=none;gradientDirection=north;fontStyle=0;html=1;" vertex="1" parent="1">
          <mxGeometry x="171" y="850" width="98" height="57" as="geometry" />
        </mxCell>
        <mxCell id="sohU493tWmFUhHb27Ihu-119" style="fontStyle=1;strokeColor=#003366;strokeWidth=1;html=1;rounded=0;" edge="1" parent="1" source="sohU493tWmFUhHb27Ihu-114" target="sohU493tWmFUhHb27Ihu-115">
          <mxGeometry relative="1" as="geometry" />
        </mxCell>
        <mxCell id="sohU493tWmFUhHb27Ihu-120" style="fontStyle=1;strokeColor=#003366;strokeWidth=1;html=1;rounded=0;" edge="1" parent="1" source="sohU493tWmFUhHb27Ihu-115" target="sohU493tWmFUhHb27Ihu-117">
          <mxGeometry relative="1" as="geometry" />
        </mxCell>
        <mxCell id="sohU493tWmFUhHb27Ihu-121" style="entryX=0.5;entryY=0;entryPerimeter=0;fontStyle=1;strokeColor=#003366;strokeWidth=1;html=1;rounded=0;" edge="1" parent="1" source="sohU493tWmFUhHb27Ihu-117" target="sohU493tWmFUhHb27Ihu-118">
          <mxGeometry relative="1" as="geometry" />
        </mxCell>
        <mxCell id="sohU493tWmFUhHb27Ihu-122" value="" style="edgeStyle=elbowEdgeStyle;elbow=horizontal;entryX=0.5;entryY=0.91;entryPerimeter=0;exitX=1;exitY=0.5;exitPerimeter=0;fontStyle=1;strokeColor=#003366;strokeWidth=1;html=1;rounded=0;" edge="1" parent="1" source="sohU493tWmFUhHb27Ihu-118" target="sohU493tWmFUhHb27Ihu-163">
          <mxGeometry x="281" y="488.5" width="100" height="100" as="geometry">
            <mxPoint x="650" y="907" as="sourcePoint" />
            <mxPoint x="665.395" y="778.5" as="targetPoint" />
            <Array as="points">
              <mxPoint x="445" y="860" />
            </Array>
          </mxGeometry>
        </mxCell>
        <mxCell id="sohU493tWmFUhHb27Ihu-123" value="yes" style="text;fontStyle=0;html=1;strokeColor=none;gradientColor=none;fillColor=none;strokeWidth=2;" vertex="1" parent="1">
          <mxGeometry x="270" y="850" width="40" height="26" as="geometry" />
        </mxCell>
        <mxCell id="sohU493tWmFUhHb27Ihu-124" value="" style="edgeStyle=elbowEdgeStyle;elbow=horizontal;fontColor=#001933;fontStyle=1;strokeColor=#003366;strokeWidth=1;html=1;rounded=0;" edge="1" parent="1" source="sohU493tWmFUhHb27Ihu-118" target="sohU493tWmFUhHb27Ihu-116">
          <mxGeometry x="-100" y="460" width="100" height="100" as="geometry">
            <mxPoint x="-100" y="560" as="sourcePoint" />
            <mxPoint y="460" as="targetPoint" />
          </mxGeometry>
        </mxCell>
        <mxCell id="sohU493tWmFUhHb27Ihu-125" value="order material" style="shape=mxgraph.flowchart.data;strokeWidth=2;gradientColor=none;gradientDirection=north;fontStyle=0;html=1;" vertex="1" parent="1">
          <mxGeometry x="140.5" y="1100" width="159" height="80" as="geometry" />
        </mxCell>
        <mxCell id="sohU493tWmFUhHb27Ihu-126" value="no" style="text;fontStyle=0;html=1;strokeColor=none;gradientColor=none;fillColor=none;strokeWidth=2;align=center;" vertex="1" parent="1">
          <mxGeometry x="220" y="907" width="40" height="26" as="geometry" />
        </mxCell>
        <mxCell id="sohU493tWmFUhHb27Ihu-127" value="final project" style="shape=mxgraph.flowchart.document;strokeWidth=2;gradientColor=none;gradientDirection=north;fontStyle=0;html=1;" vertex="1" parent="1">
          <mxGeometry x="380" y="975" width="140" height="70" as="geometry" />
        </mxCell>
        <mxCell id="sohU493tWmFUhHb27Ihu-128" value="" style="edgeStyle=elbowEdgeStyle;elbow=horizontal;exitX=0.905;exitY=0.5;exitPerimeter=0;fontStyle=1;strokeColor=#003366;strokeWidth=1;html=1;rounded=0;" edge="1" parent="1" source="sohU493tWmFUhHb27Ihu-116" target="sohU493tWmFUhHb27Ihu-127">
          <mxGeometry x="-100" y="460" width="100" height="100" as="geometry">
            <mxPoint x="-100" y="560" as="sourcePoint" />
            <mxPoint y="460" as="targetPoint" />
          </mxGeometry>
        </mxCell>
        <mxCell id="sohU493tWmFUhHb27Ihu-129" value="" style="edgeStyle=elbowEdgeStyle;elbow=horizontal;fontStyle=1;strokeColor=#003366;strokeWidth=1;html=1;rounded=0;" edge="1" parent="1" source="sohU493tWmFUhHb27Ihu-116" target="sohU493tWmFUhHb27Ihu-125">
          <mxGeometry x="-100" y="460" width="100" height="100" as="geometry">
            <mxPoint x="-100" y="560" as="sourcePoint" />
            <mxPoint y="460" as="targetPoint" />
          </mxGeometry>
        </mxCell>
        <mxCell id="sohU493tWmFUhHb27Ihu-130" value="material&#xa;balance" style="shape=mxgraph.flowchart.predefined_process;strokeWidth=2;gradientColor=none;gradientDirection=north;fontStyle=0;html=1;" vertex="1" parent="1">
          <mxGeometry x="380" y="1095" width="190" height="90" as="geometry" />
        </mxCell>
        <mxCell id="sohU493tWmFUhHb27Ihu-131" value="" style="edgeStyle=elbowEdgeStyle;elbow=horizontal;exitX=0.905;exitY=0.5;exitPerimeter=0;fontStyle=1;strokeColor=#003366;strokeWidth=1;html=1;rounded=0;" edge="1" parent="1" source="sohU493tWmFUhHb27Ihu-125" target="sohU493tWmFUhHb27Ihu-130">
          <mxGeometry x="-100" y="460" width="100" height="100" as="geometry">
            <mxPoint x="-100" y="560" as="sourcePoint" />
            <mxPoint y="460" as="targetPoint" />
          </mxGeometry>
        </mxCell>
        <mxCell id="sohU493tWmFUhHb27Ihu-132" value="organize &#xa;workforce" style="shape=mxgraph.flowchart.manual_input;strokeWidth=2;gradientColor=none;gradientDirection=north;fontStyle=0;html=1;" vertex="1" parent="1">
          <mxGeometry x="142" y="1240" width="158" height="80" as="geometry" />
        </mxCell>
        <mxCell id="sohU493tWmFUhHb27Ihu-133" value="" style="edgeStyle=elbowEdgeStyle;elbow=horizontal;entryX=0.5;entryY=0.195;entryPerimeter=0;fontStyle=1;strokeColor=#003366;strokeWidth=1;html=1;rounded=0;" edge="1" parent="1" source="sohU493tWmFUhHb27Ihu-125" target="sohU493tWmFUhHb27Ihu-132">
          <mxGeometry x="-100" y="460" width="100" height="100" as="geometry">
            <mxPoint x="-100" y="560" as="sourcePoint" />
            <mxPoint y="460" as="targetPoint" />
          </mxGeometry>
        </mxCell>
        <mxCell id="sohU493tWmFUhHb27Ihu-134" value="create Gantt&#xa;diagram" style="shape=mxgraph.flowchart.document;strokeWidth=2;gradientColor=none;gradientDirection=north;fontStyle=0;html=1;" vertex="1" parent="1">
          <mxGeometry x="140.5" y="1380" width="159" height="90" as="geometry" />
        </mxCell>
        <mxCell id="sohU493tWmFUhHb27Ihu-135" value="" style="edgeStyle=elbowEdgeStyle;elbow=horizontal;exitX=0.5;exitY=1;exitPerimeter=0;fontStyle=1;strokeColor=#003366;strokeWidth=1;html=1;rounded=0;" edge="1" parent="1" source="sohU493tWmFUhHb27Ihu-132" target="sohU493tWmFUhHb27Ihu-134">
          <mxGeometry x="-100" y="460" width="100" height="100" as="geometry">
            <mxPoint x="-100" y="560" as="sourcePoint" />
            <mxPoint y="460" as="targetPoint" />
          </mxGeometry>
        </mxCell>
        <mxCell id="sohU493tWmFUhHb27Ihu-136" value="late&#xa;project&#xa;changes?" style="shape=mxgraph.flowchart.decision;strokeWidth=2;gradientColor=none;gradientDirection=north;fontStyle=0;html=1;" vertex="1" parent="1">
          <mxGeometry x="161.5" y="1540" width="119" height="78.5" as="geometry" />
        </mxCell>
        <mxCell id="sohU493tWmFUhHb27Ihu-137" value="" style="edgeStyle=elbowEdgeStyle;elbow=horizontal;exitX=0.5;exitY=0.9;exitPerimeter=0;fontStyle=1;strokeColor=#003366;strokeWidth=1;html=1;rounded=0;" edge="1" parent="1" source="sohU493tWmFUhHb27Ihu-134" target="sohU493tWmFUhHb27Ihu-136">
          <mxGeometry x="-100" y="460" width="100" height="100" as="geometry">
            <mxPoint x="-100" y="560" as="sourcePoint" />
            <mxPoint y="460" as="targetPoint" />
          </mxGeometry>
        </mxCell>
        <mxCell id="sohU493tWmFUhHb27Ihu-138" value="" style="edgeStyle=elbowEdgeStyle;elbow=horizontal;exitX=0;exitY=0.5;exitPerimeter=0;entryX=0;entryY=0.5;entryPerimeter=0;fontStyle=1;strokeColor=#003366;strokeWidth=1;html=1;rounded=0;" edge="1" parent="1" source="sohU493tWmFUhHb27Ihu-140" target="sohU493tWmFUhHb27Ihu-118">
          <mxGeometry x="-100" y="460" width="100" height="100" as="geometry">
            <mxPoint x="-100" y="560" as="sourcePoint" />
            <mxPoint y="460" as="targetPoint" />
            <Array as="points">
              <mxPoint x="60" y="1310" />
            </Array>
          </mxGeometry>
        </mxCell>
        <mxCell id="sohU493tWmFUhHb27Ihu-139" value="yes" style="text;fontStyle=0;html=1;strokeColor=none;gradientColor=none;fillColor=none;strokeWidth=2;" vertex="1" parent="1">
          <mxGeometry x="180" y="1618.5" width="40" height="26" as="geometry" />
        </mxCell>
        <mxCell id="sohU493tWmFUhHb27Ihu-140" value="investor&#xa;disapproves&#xa; investment?" style="shape=mxgraph.flowchart.decision;strokeWidth=2;gradientColor=none;gradientDirection=north;fontStyle=0;html=1;" vertex="1" parent="1">
          <mxGeometry x="155" y="1670" width="130" height="100" as="geometry" />
        </mxCell>
        <mxCell id="sohU493tWmFUhHb27Ihu-141" value="agreement?" style="shape=mxgraph.flowchart.decision;strokeWidth=2;gradientColor=none;gradientDirection=north;fontStyle=0;html=1;" vertex="1" parent="1">
          <mxGeometry x="410" y="1670" width="130" height="100" as="geometry" />
        </mxCell>
        <mxCell id="sohU493tWmFUhHb27Ihu-142" value="" style="edgeStyle=elbowEdgeStyle;elbow=horizontal;exitX=0.5;exitY=1;exitPerimeter=0;fontStyle=1;strokeColor=#003366;strokeWidth=1;html=1;rounded=0;" edge="1" parent="1" source="sohU493tWmFUhHb27Ihu-136" target="sohU493tWmFUhHb27Ihu-140">
          <mxGeometry x="-100" y="460" width="100" height="100" as="geometry">
            <mxPoint x="-100" y="560" as="sourcePoint" />
            <mxPoint y="460" as="targetPoint" />
          </mxGeometry>
        </mxCell>
        <mxCell id="sohU493tWmFUhHb27Ihu-143" value="" style="edgeStyle=elbowEdgeStyle;elbow=horizontal;exitX=1;exitY=0.5;exitPerimeter=0;entryX=0;entryY=0.5;entryPerimeter=0;fontStyle=1;strokeColor=#003366;strokeWidth=1;html=1;rounded=0;" edge="1" parent="1" source="sohU493tWmFUhHb27Ihu-140" target="sohU493tWmFUhHb27Ihu-141">
          <mxGeometry x="-100" y="460" width="100" height="100" as="geometry">
            <mxPoint x="-100" y="560" as="sourcePoint" />
            <mxPoint y="460" as="targetPoint" />
          </mxGeometry>
        </mxCell>
        <mxCell id="sohU493tWmFUhHb27Ihu-144" value="terminate&#xa;contract&#xa;" style="shape=mxgraph.flowchart.merge_or_storage;strokeWidth=2;gradientColor=none;gradientDirection=north;fontStyle=0;html=1;" vertex="1" parent="1">
          <mxGeometry x="660" y="1760" width="130" height="80.5" as="geometry" />
        </mxCell>
        <mxCell id="sohU493tWmFUhHb27Ihu-145" value="" style="edgeStyle=elbowEdgeStyle;elbow=vertical;exitX=1;exitY=0.5;exitPerimeter=0;entryX=0.5;entryY=0;entryPerimeter=0;fontStyle=1;strokeColor=#003366;strokeWidth=1;html=1;rounded=0;" edge="1" parent="1" source="sohU493tWmFUhHb27Ihu-141" target="sohU493tWmFUhHb27Ihu-144">
          <mxGeometry x="-100" y="460" width="100" height="100" as="geometry">
            <mxPoint x="-100" y="560" as="sourcePoint" />
            <mxPoint y="460" as="targetPoint" />
            <Array as="points">
              <mxPoint x="640" y="1720" />
            </Array>
          </mxGeometry>
        </mxCell>
        <mxCell id="sohU493tWmFUhHb27Ihu-146" value="create&#xa;status&#xa;report" style="shape=mxgraph.flowchart.data;strokeWidth=2;gradientColor=none;gradientDirection=north;fontStyle=0;html=1;" vertex="1" parent="1">
          <mxGeometry x="140.5" y="1950" width="159" height="80" as="geometry" />
        </mxCell>
        <mxCell id="sohU493tWmFUhHb27Ihu-147" value="" style="edgeStyle=elbowEdgeStyle;elbow=vertical;exitX=0.5;exitY=1;exitPerimeter=0;fontColor=#001933;fontStyle=1;strokeColor=#003366;strokeWidth=1;html=1;rounded=0;" edge="1" parent="1" source="sohU493tWmFUhHb27Ihu-140" target="sohU493tWmFUhHb27Ihu-146">
          <mxGeometry x="-100" y="460" width="100" height="100" as="geometry">
            <mxPoint x="-100" y="560" as="sourcePoint" />
            <mxPoint y="460" as="targetPoint" />
          </mxGeometry>
        </mxCell>
        <mxCell id="sohU493tWmFUhHb27Ihu-148" value="" style="edgeStyle=elbowEdgeStyle;elbow=vertical;exitX=0.5;exitY=1;exitPerimeter=0;entryX=0.5;entryY=0;entryPerimeter=0;fontStyle=1;strokeColor=#003366;strokeWidth=1;html=1;rounded=0;" edge="1" parent="1" source="sohU493tWmFUhHb27Ihu-141" target="sohU493tWmFUhHb27Ihu-146">
          <mxGeometry x="-100" y="460" width="100" height="100" as="geometry">
            <mxPoint x="-100" y="560" as="sourcePoint" />
            <mxPoint y="460" as="targetPoint" />
          </mxGeometry>
        </mxCell>
        <mxCell id="sohU493tWmFUhHb27Ihu-149" value="project&#xa;complete?" style="shape=mxgraph.flowchart.decision;strokeWidth=2;gradientColor=none;gradientDirection=north;fontStyle=0;html=1;" vertex="1" parent="1">
          <mxGeometry x="171" y="2081.5" width="98" height="57" as="geometry" />
        </mxCell>
        <mxCell id="sohU493tWmFUhHb27Ihu-150" value="create&#xa;final&#xa;report" style="shape=mxgraph.flowchart.data;strokeWidth=2;gradientColor=none;gradientDirection=north;fontStyle=0;html=1;" vertex="1" parent="1">
          <mxGeometry x="140.5" y="2190" width="159" height="80" as="geometry" />
        </mxCell>
        <mxCell id="sohU493tWmFUhHb27Ihu-151" value="issue&#xa;bill of works" style="shape=mxgraph.flowchart.predefined_process;strokeWidth=2;gradientColor=none;gradientDirection=north;fontStyle=0;html=1;" vertex="1" parent="1">
          <mxGeometry x="460" y="2185" width="190" height="90" as="geometry" />
        </mxCell>
        <mxCell id="sohU493tWmFUhHb27Ihu-152" value="end" style="shape=mxgraph.flowchart.terminator;strokeWidth=2;gradientColor=none;gradientDirection=north;fontStyle=0;html=1;" vertex="1" parent="1">
          <mxGeometry x="160" y="2370" width="120" height="30" as="geometry" />
        </mxCell>
        <mxCell id="sohU493tWmFUhHb27Ihu-153" value="" style="edgeStyle=elbowEdgeStyle;elbow=vertical;exitX=0.5;exitY=1;exitPerimeter=0;entryX=0.5;entryY=0;entryPerimeter=0;fontStyle=1;strokeColor=#003366;strokeWidth=1;html=1;rounded=0;" edge="1" parent="1" source="sohU493tWmFUhHb27Ihu-146" target="sohU493tWmFUhHb27Ihu-149">
          <mxGeometry x="-100" y="460" width="100" height="100" as="geometry">
            <mxPoint x="-100" y="560" as="sourcePoint" />
            <mxPoint y="460" as="targetPoint" />
          </mxGeometry>
        </mxCell>
        <mxCell id="sohU493tWmFUhHb27Ihu-154" value="" style="edgeStyle=elbowEdgeStyle;elbow=vertical;exitX=0.5;exitY=1;exitPerimeter=0;entryX=0.5;entryY=0;entryPerimeter=0;fontStyle=1;strokeColor=#003366;strokeWidth=1;html=1;rounded=0;" edge="1" parent="1" source="sohU493tWmFUhHb27Ihu-149" target="sohU493tWmFUhHb27Ihu-150">
          <mxGeometry x="-100" y="460" width="100" height="100" as="geometry">
            <mxPoint x="-100" y="560" as="sourcePoint" />
            <mxPoint y="460" as="targetPoint" />
          </mxGeometry>
        </mxCell>
        <mxCell id="sohU493tWmFUhHb27Ihu-155" value="" style="edgeStyle=elbowEdgeStyle;elbow=vertical;exitX=0.5;exitY=1;exitPerimeter=0;entryX=0.5;entryY=0;entryPerimeter=0;fontStyle=1;strokeColor=#003366;strokeWidth=1;html=1;rounded=0;" edge="1" parent="1" source="sohU493tWmFUhHb27Ihu-150" target="sohU493tWmFUhHb27Ihu-152">
          <mxGeometry x="-100" y="460" width="100" height="100" as="geometry">
            <mxPoint x="-100" y="560" as="sourcePoint" />
            <mxPoint y="460" as="targetPoint" />
          </mxGeometry>
        </mxCell>
        <mxCell id="sohU493tWmFUhHb27Ihu-156" value="" style="edgeStyle=elbowEdgeStyle;elbow=vertical;exitX=0.905;exitY=0.5;exitPerimeter=0;entryX=0;entryY=0.5;entryPerimeter=0;fontStyle=1;strokeColor=#003366;strokeWidth=1;html=1;rounded=0;" edge="1" parent="1" source="sohU493tWmFUhHb27Ihu-150" target="sohU493tWmFUhHb27Ihu-151">
          <mxGeometry x="-100" y="460" width="100" height="100" as="geometry">
            <mxPoint x="-100" y="560" as="sourcePoint" />
            <mxPoint y="460" as="targetPoint" />
          </mxGeometry>
        </mxCell>
        <mxCell id="sohU493tWmFUhHb27Ihu-157" value="" style="edgeStyle=elbowEdgeStyle;elbow=horizontal;exitX=1;exitY=0.5;exitPerimeter=0;entryX=0.905;entryY=0.5;entryPerimeter=0;fontStyle=1;strokeColor=#003366;strokeWidth=1;html=1;rounded=0;" edge="1" parent="1" source="sohU493tWmFUhHb27Ihu-136" target="sohU493tWmFUhHb27Ihu-146">
          <mxGeometry x="-100" y="460" width="100" height="100" as="geometry">
            <mxPoint x="-100" y="560" as="sourcePoint" />
            <mxPoint y="460" as="targetPoint" />
            <Array as="points">
              <mxPoint x="850" y="1780" />
            </Array>
          </mxGeometry>
        </mxCell>
        <mxCell id="sohU493tWmFUhHb27Ihu-158" value="no" style="text;fontStyle=0;html=1;strokeColor=none;gradientColor=none;fillColor=none;strokeWidth=2;" vertex="1" parent="1">
          <mxGeometry x="280.5" y="1553.25" width="40" height="26" as="geometry" />
        </mxCell>
        <mxCell id="sohU493tWmFUhHb27Ihu-159" value="yes" style="text;fontColor=#001933;fontStyle=0;html=1;strokeColor=none;gradientColor=none;fillColor=none;strokeWidth=2;" vertex="1" parent="1">
          <mxGeometry x="285" y="1694" width="40" height="26" as="geometry" />
        </mxCell>
        <mxCell id="sohU493tWmFUhHb27Ihu-160" value="no" style="text;fontColor=#001933;fontStyle=0;html=1;strokeColor=none;gradientColor=none;fillColor=none;strokeWidth=2;align=center;" vertex="1" parent="1">
          <mxGeometry x="220" y="1770" width="40" height="26" as="geometry" />
        </mxCell>
        <mxCell id="sohU493tWmFUhHb27Ihu-161" value="yes" style="text;fontColor=#001933;fontStyle=0;html=1;strokeColor=none;gradientColor=none;fillColor=none;strokeWidth=2;align=center;" vertex="1" parent="1">
          <mxGeometry x="475" y="1770" width="40" height="26" as="geometry" />
        </mxCell>
        <mxCell id="sohU493tWmFUhHb27Ihu-162" value="no" style="text;fontColor=#001933;fontStyle=0;html=1;strokeColor=none;gradientColor=none;fillColor=none;strokeWidth=2;" vertex="1" parent="1">
          <mxGeometry x="540" y="1694" width="40" height="26" as="geometry" />
        </mxCell>
        <mxCell id="sohU493tWmFUhHb27Ihu-163" value="iron out&#xa;obscurities &#xa;with investor" style="shape=mxgraph.flowchart.paper_tape;strokeWidth=2;gradientColor=none;gradientDirection=north;fontStyle=0;html=1;" vertex="1" parent="1">
          <mxGeometry x="370" y="760" width="150" height="81" as="geometry" />
        </mxCell>
        <mxCell id="sohU493tWmFUhHb27Ihu-164" value="" style="edgeStyle=elbowEdgeStyle;elbow=horizontal;exitX=0.5;exitY=0.09;exitPerimeter=0;entryX=0.905;entryY=0.5;entryPerimeter=0;fontStyle=1;strokeColor=#003366;strokeWidth=1;html=1;rounded=0;" edge="1" parent="1" source="sohU493tWmFUhHb27Ihu-163" target="sohU493tWmFUhHb27Ihu-117">
          <mxGeometry x="-100" y="460" width="100" height="100" as="geometry">
            <mxPoint x="-100" y="560" as="sourcePoint" />
            <mxPoint y="460" as="targetPoint" />
            <Array as="points">
              <mxPoint x="445" y="760" />
            </Array>
          </mxGeometry>
        </mxCell>
        <mxCell id="sohU493tWmFUhHb27Ihu-165" value="yes" style="text;fontStyle=0;html=1;strokeColor=none;gradientColor=none;fillColor=none;strokeWidth=2;align=center;" vertex="1" parent="1">
          <mxGeometry x="221" y="2140" width="40" height="26" as="geometry" />
        </mxCell>
        <mxCell id="sohU493tWmFUhHb27Ihu-166" value="" style="edgeStyle=elbowEdgeStyle;elbow=horizontal;exitX=0;exitY=0.5;exitPerimeter=0;entryX=0.095;entryY=0.5;entryPerimeter=0;fontStyle=1;strokeColor=#003366;strokeWidth=1;html=1;rounded=0;" edge="1" parent="1" source="sohU493tWmFUhHb27Ihu-149" target="sohU493tWmFUhHb27Ihu-117">
          <mxGeometry x="-100" y="460" width="100" height="100" as="geometry">
            <mxPoint x="-100" y="560" as="sourcePoint" />
            <mxPoint y="460" as="targetPoint" />
            <Array as="points">
              <mxPoint x="20" y="1430" />
            </Array>
          </mxGeometry>
        </mxCell>
        <mxCell id="sohU493tWmFUhHb27Ihu-167" value="no" style="text;fontStyle=0;html=1;strokeColor=none;gradientColor=none;fillColor=none;strokeWidth=2;" vertex="1" parent="1">
          <mxGeometry x="135" y="2084" width="40" height="26" as="geometry" />
        </mxCell>
      </root>
    </mxGraphModel>
  </diagram>
  <diagram id="GdZ38Ayr-IU_BLJzzhjJ" name="泳道流程图">
    <mxGraphModel dx="1422" dy="785" grid="1" gridSize="10" guides="1" tooltips="1" connect="1" arrows="1" fold="1" page="1" pageScale="1" pageWidth="827" pageHeight="1169" math="0" shadow="0">
      <root>
        <mxCell id="0" />
        <mxCell id="1" parent="0" />
        <mxCell id="RboVH7OWBr8ahLMjOG_G-1" value="Pool" style="swimlane;html=1;childLayout=stackLayout;resizeParent=1;resizeParentMax=0;horizontal=0;startSize=20;horizontalStack=0;" vertex="1" parent="1">
          <mxGeometry x="20" y="20" width="450" height="360" as="geometry" />
        </mxCell>
        <mxCell id="RboVH7OWBr8ahLMjOG_G-2" value="" style="edgeStyle=orthogonalEdgeStyle;rounded=0;orthogonalLoop=1;jettySize=auto;html=1;dashed=1;endArrow=none;endFill=0;" edge="1" parent="RboVH7OWBr8ahLMjOG_G-1" source="RboVH7OWBr8ahLMjOG_G-9" target="RboVH7OWBr8ahLMjOG_G-15">
          <mxGeometry relative="1" as="geometry" />
        </mxCell>
        <mxCell id="RboVH7OWBr8ahLMjOG_G-3" style="edgeStyle=orthogonalEdgeStyle;rounded=0;orthogonalLoop=1;jettySize=auto;html=1;endArrow=classic;endFill=1;" edge="1" parent="RboVH7OWBr8ahLMjOG_G-1" source="RboVH7OWBr8ahLMjOG_G-16" target="RboVH7OWBr8ahLMjOG_G-11">
          <mxGeometry relative="1" as="geometry" />
        </mxCell>
        <mxCell id="RboVH7OWBr8ahLMjOG_G-4" style="edgeStyle=orthogonalEdgeStyle;rounded=0;orthogonalLoop=1;jettySize=auto;html=1;endArrow=classic;endFill=1;" edge="1" parent="RboVH7OWBr8ahLMjOG_G-1" source="RboVH7OWBr8ahLMjOG_G-16" target="RboVH7OWBr8ahLMjOG_G-19">
          <mxGeometry relative="1" as="geometry" />
        </mxCell>
        <mxCell id="RboVH7OWBr8ahLMjOG_G-5" style="edgeStyle=orthogonalEdgeStyle;rounded=0;orthogonalLoop=1;jettySize=auto;html=1;endArrow=classic;endFill=1;" edge="1" parent="RboVH7OWBr8ahLMjOG_G-1" source="RboVH7OWBr8ahLMjOG_G-15" target="RboVH7OWBr8ahLMjOG_G-20">
          <mxGeometry relative="1" as="geometry">
            <Array as="points">
              <mxPoint x="180" y="340" />
              <mxPoint x="400" y="340" />
            </Array>
          </mxGeometry>
        </mxCell>
        <mxCell id="RboVH7OWBr8ahLMjOG_G-6" value="Lane 1" style="swimlane;html=1;startSize=20;horizontal=0;" vertex="1" parent="RboVH7OWBr8ahLMjOG_G-1">
          <mxGeometry x="20" width="430" height="120" as="geometry" />
        </mxCell>
        <mxCell id="RboVH7OWBr8ahLMjOG_G-7" value="" style="edgeStyle=orthogonalEdgeStyle;rounded=0;orthogonalLoop=1;jettySize=auto;html=1;" edge="1" parent="RboVH7OWBr8ahLMjOG_G-6" source="RboVH7OWBr8ahLMjOG_G-8" target="RboVH7OWBr8ahLMjOG_G-9">
          <mxGeometry relative="1" as="geometry" />
        </mxCell>
        <mxCell id="RboVH7OWBr8ahLMjOG_G-8" value="" style="ellipse;whiteSpace=wrap;html=1;" vertex="1" parent="RboVH7OWBr8ahLMjOG_G-6">
          <mxGeometry x="40" y="40" width="40" height="40" as="geometry" />
        </mxCell>
        <mxCell id="RboVH7OWBr8ahLMjOG_G-9" value="" style="rounded=0;whiteSpace=wrap;html=1;fontFamily=Helvetica;fontSize=12;fontColor=#000000;align=center;" vertex="1" parent="RboVH7OWBr8ahLMjOG_G-6">
          <mxGeometry x="120" y="30" width="80" height="60" as="geometry" />
        </mxCell>
        <mxCell id="RboVH7OWBr8ahLMjOG_G-10" value="" style="edgeStyle=orthogonalEdgeStyle;rounded=0;orthogonalLoop=1;jettySize=auto;html=1;endArrow=classic;endFill=1;" edge="1" parent="RboVH7OWBr8ahLMjOG_G-6" source="RboVH7OWBr8ahLMjOG_G-11" target="RboVH7OWBr8ahLMjOG_G-12">
          <mxGeometry relative="1" as="geometry" />
        </mxCell>
        <mxCell id="RboVH7OWBr8ahLMjOG_G-11" value="" style="rounded=0;whiteSpace=wrap;html=1;fontFamily=Helvetica;fontSize=12;fontColor=#000000;align=center;" vertex="1" parent="RboVH7OWBr8ahLMjOG_G-6">
          <mxGeometry x="240" y="30" width="80" height="60" as="geometry" />
        </mxCell>
        <mxCell id="RboVH7OWBr8ahLMjOG_G-12" value="" style="ellipse;whiteSpace=wrap;html=1;" vertex="1" parent="RboVH7OWBr8ahLMjOG_G-6">
          <mxGeometry x="360" y="40" width="40" height="40" as="geometry" />
        </mxCell>
        <mxCell id="RboVH7OWBr8ahLMjOG_G-13" value="Lane 2" style="swimlane;html=1;startSize=20;horizontal=0;" vertex="1" parent="RboVH7OWBr8ahLMjOG_G-1">
          <mxGeometry x="20" y="120" width="430" height="120" as="geometry" />
        </mxCell>
        <mxCell id="RboVH7OWBr8ahLMjOG_G-14" value="" style="edgeStyle=orthogonalEdgeStyle;rounded=0;orthogonalLoop=1;jettySize=auto;html=1;endArrow=classic;endFill=1;" edge="1" parent="RboVH7OWBr8ahLMjOG_G-13" source="RboVH7OWBr8ahLMjOG_G-15" target="RboVH7OWBr8ahLMjOG_G-16">
          <mxGeometry relative="1" as="geometry" />
        </mxCell>
        <mxCell id="RboVH7OWBr8ahLMjOG_G-15" value="" style="rounded=0;whiteSpace=wrap;html=1;fontFamily=Helvetica;fontSize=12;fontColor=#000000;align=center;" vertex="1" parent="RboVH7OWBr8ahLMjOG_G-13">
          <mxGeometry x="120" y="30" width="80" height="60" as="geometry" />
        </mxCell>
        <mxCell id="RboVH7OWBr8ahLMjOG_G-16" value="" style="rhombus;whiteSpace=wrap;html=1;fontFamily=Helvetica;fontSize=12;fontColor=#000000;align=center;" vertex="1" parent="RboVH7OWBr8ahLMjOG_G-13">
          <mxGeometry x="260" y="40" width="40" height="40" as="geometry" />
        </mxCell>
        <mxCell id="RboVH7OWBr8ahLMjOG_G-17" value="Lane 3" style="swimlane;html=1;startSize=20;horizontal=0;" vertex="1" parent="RboVH7OWBr8ahLMjOG_G-1">
          <mxGeometry x="20" y="240" width="430" height="120" as="geometry" />
        </mxCell>
        <mxCell id="RboVH7OWBr8ahLMjOG_G-18" value="" style="edgeStyle=orthogonalEdgeStyle;rounded=0;orthogonalLoop=1;jettySize=auto;html=1;endArrow=classic;endFill=1;" edge="1" parent="RboVH7OWBr8ahLMjOG_G-17" source="RboVH7OWBr8ahLMjOG_G-19" target="RboVH7OWBr8ahLMjOG_G-20">
          <mxGeometry relative="1" as="geometry" />
        </mxCell>
        <mxCell id="RboVH7OWBr8ahLMjOG_G-19" value="" style="rounded=0;whiteSpace=wrap;html=1;fontFamily=Helvetica;fontSize=12;fontColor=#000000;align=center;" vertex="1" parent="RboVH7OWBr8ahLMjOG_G-17">
          <mxGeometry x="240" y="20" width="80" height="60" as="geometry" />
        </mxCell>
        <mxCell id="RboVH7OWBr8ahLMjOG_G-20" value="" style="rhombus;whiteSpace=wrap;html=1;fontFamily=Helvetica;fontSize=12;fontColor=#000000;align=center;" vertex="1" parent="RboVH7OWBr8ahLMjOG_G-17">
          <mxGeometry x="360" y="30" width="40" height="40" as="geometry" />
        </mxCell>
      </root>
    </mxGraphModel>
  </diagram>
  <diagram id="x0BW4I22_JqWL6_anCHV" name="数据流程图">
    <mxGraphModel dx="1422" dy="785" grid="1" gridSize="10" guides="1" tooltips="1" connect="1" arrows="1" fold="1" page="1" pageScale="1" pageWidth="827" pageHeight="1169" math="0" shadow="0">
      <root>
        <mxCell id="0" />
        <mxCell id="1" parent="0" />
        <mxCell id="qtkRwHgVHN03jDVJklL6-1" value="Database" style="html=1;rounded=0;shadow=0;comic=0;labelBackgroundColor=none;strokeWidth=2;fontFamily=Verdana;fontSize=12;align=center;shape=mxgraph.ios7ui.horLines;" vertex="1" parent="1">
          <mxGeometry x="880" y="73" width="135" height="50" as="geometry" />
        </mxCell>
        <mxCell id="qtkRwHgVHN03jDVJklL6-2" value="Database" style="html=1;rounded=0;shadow=0;comic=0;labelBackgroundColor=none;strokeWidth=2;fontFamily=Verdana;fontSize=12;align=center;shape=mxgraph.ios7ui.horLines;" vertex="1" parent="1">
          <mxGeometry x="880" y="171" width="135" height="50" as="geometry" />
        </mxCell>
        <mxCell id="qtkRwHgVHN03jDVJklL6-3" value="Output" style="whiteSpace=wrap;html=1;rounded=0;shadow=0;comic=0;labelBackgroundColor=none;strokeWidth=1;fontFamily=Verdana;fontSize=12;align=center;" vertex="1" parent="1">
          <mxGeometry x="690" y="23" width="120" height="50" as="geometry" />
        </mxCell>
        <mxCell id="qtkRwHgVHN03jDVJklL6-4" style="edgeStyle=none;html=1;labelBackgroundColor=none;startFill=0;startSize=8;endFill=1;endSize=8;fontFamily=Verdana;fontSize=12;rounded=0;" edge="1" parent="1" source="qtkRwHgVHN03jDVJklL6-5" target="qtkRwHgVHN03jDVJklL6-9">
          <mxGeometry relative="1" as="geometry" />
        </mxCell>
        <mxCell id="qtkRwHgVHN03jDVJklL6-5" value="Input" style="whiteSpace=wrap;html=1;rounded=0;shadow=0;comic=0;labelBackgroundColor=none;strokeWidth=1;fontFamily=Verdana;fontSize=12;align=center;" vertex="1" parent="1">
          <mxGeometry x="30" y="21" width="120" height="50" as="geometry" />
        </mxCell>
        <mxCell id="qtkRwHgVHN03jDVJklL6-6" style="edgeStyle=none;html=1;labelBackgroundColor=none;startFill=0;startSize=8;endFill=1;endSize=8;fontFamily=Verdana;fontSize=12;rounded=0;" edge="1" parent="1" source="qtkRwHgVHN03jDVJklL6-9" target="qtkRwHgVHN03jDVJklL6-3">
          <mxGeometry relative="1" as="geometry" />
        </mxCell>
        <mxCell id="qtkRwHgVHN03jDVJklL6-7" style="edgeStyle=none;html=1;labelBackgroundColor=none;startFill=0;startSize=8;endFill=1;endSize=8;fontFamily=Verdana;fontSize=12;rounded=0;" edge="1" parent="1" source="qtkRwHgVHN03jDVJklL6-9" target="qtkRwHgVHN03jDVJklL6-15">
          <mxGeometry relative="1" as="geometry" />
        </mxCell>
        <mxCell id="qtkRwHgVHN03jDVJklL6-8" style="edgeStyle=orthogonalEdgeStyle;html=1;labelBackgroundColor=none;startFill=0;startSize=8;endFill=1;endSize=8;fontFamily=Verdana;fontSize=12;rounded=0;" edge="1" parent="1" source="qtkRwHgVHN03jDVJklL6-9" target="qtkRwHgVHN03jDVJklL6-1">
          <mxGeometry relative="1" as="geometry">
            <Array as="points">
              <mxPoint x="510" y="98" />
            </Array>
          </mxGeometry>
        </mxCell>
        <mxCell id="qtkRwHgVHN03jDVJklL6-9" value="1.5" style="swimlane;html=1;fontStyle=0;childLayout=stackLayout;horizontal=1;startSize=26;fillColor=#e0e0e0;horizontalStack=0;resizeParent=1;resizeLast=0;collapsible=1;marginBottom=0;swimlaneFillColor=#ffffff;align=center;rounded=1;shadow=0;comic=0;labelBackgroundColor=none;strokeWidth=1;fontFamily=Verdana;fontSize=12" vertex="1" parent="1">
          <mxGeometry x="400" y="20" width="140" height="52" as="geometry" />
        </mxCell>
        <mxCell id="qtkRwHgVHN03jDVJklL6-10" value="Row 1" style="text;html=1;strokeColor=none;fillColor=none;spacingLeft=4;spacingRight=4;whiteSpace=wrap;overflow=hidden;rotatable=0;points=[[0,0.5],[1,0.5]];portConstraint=eastwest;align=center;" vertex="1" parent="qtkRwHgVHN03jDVJklL6-9">
          <mxGeometry y="26" width="140" height="26" as="geometry" />
        </mxCell>
        <mxCell id="qtkRwHgVHN03jDVJklL6-11" style="edgeStyle=orthogonalEdgeStyle;html=1;labelBackgroundColor=none;startFill=0;startSize=8;endFill=1;endSize=8;fontFamily=Verdana;fontSize=12;rounded=0;" edge="1" parent="1" source="qtkRwHgVHN03jDVJklL6-12" target="qtkRwHgVHN03jDVJklL6-37">
          <mxGeometry relative="1" as="geometry">
            <Array as="points">
              <mxPoint x="948" y="432" />
            </Array>
          </mxGeometry>
        </mxCell>
        <mxCell id="qtkRwHgVHN03jDVJklL6-12" value="Database" style="html=1;rounded=0;shadow=0;comic=0;labelBackgroundColor=none;strokeWidth=2;fontFamily=Verdana;fontSize=12;align=center;shape=mxgraph.ios7ui.horLines;" vertex="1" parent="1">
          <mxGeometry x="880" y="346" width="135" height="50" as="geometry" />
        </mxCell>
        <mxCell id="qtkRwHgVHN03jDVJklL6-13" style="edgeStyle=none;html=1;labelBackgroundColor=none;startFill=0;startSize=8;endFill=1;endSize=8;fontFamily=Verdana;fontSize=12;rounded=0;" edge="1" parent="1" source="qtkRwHgVHN03jDVJklL6-15" target="qtkRwHgVHN03jDVJklL6-44">
          <mxGeometry relative="1" as="geometry">
            <mxPoint x="540.0001622472457" y="145.9302333127779" as="targetPoint" />
          </mxGeometry>
        </mxCell>
        <mxCell id="qtkRwHgVHN03jDVJklL6-14" style="edgeStyle=none;html=1;labelBackgroundColor=none;startFill=0;startSize=8;endFill=1;endSize=8;fontFamily=Verdana;fontSize=12;rounded=0;" edge="1" parent="1" source="qtkRwHgVHN03jDVJklL6-15" target="qtkRwHgVHN03jDVJklL6-41">
          <mxGeometry relative="1" as="geometry" />
        </mxCell>
        <mxCell id="qtkRwHgVHN03jDVJklL6-15" value="1.6" style="swimlane;html=1;fontStyle=0;childLayout=stackLayout;horizontal=1;startSize=26;fillColor=#e0e0e0;horizontalStack=0;resizeParent=1;resizeLast=0;collapsible=1;marginBottom=0;swimlaneFillColor=#ffffff;align=center;rounded=1;shadow=0;comic=0;labelBackgroundColor=none;strokeWidth=1;fontFamily=Verdana;fontSize=12" vertex="1" parent="1">
          <mxGeometry x="400" y="120" width="140" height="52" as="geometry" />
        </mxCell>
        <mxCell id="qtkRwHgVHN03jDVJklL6-16" value="Row 1" style="text;html=1;strokeColor=none;fillColor=none;spacingLeft=4;spacingRight=4;whiteSpace=wrap;overflow=hidden;rotatable=0;points=[[0,0.5],[1,0.5]];portConstraint=eastwest;align=center;" vertex="1" parent="qtkRwHgVHN03jDVJklL6-15">
          <mxGeometry y="26" width="140" height="26" as="geometry" />
        </mxCell>
        <mxCell id="qtkRwHgVHN03jDVJklL6-17" style="edgeStyle=none;html=1;labelBackgroundColor=none;startFill=0;startSize=8;endFill=1;endSize=8;fontFamily=Verdana;fontSize=12;rounded=0;" edge="1" parent="1" source="qtkRwHgVHN03jDVJklL6-18" target="qtkRwHgVHN03jDVJklL6-15">
          <mxGeometry relative="1" as="geometry" />
        </mxCell>
        <mxCell id="qtkRwHgVHN03jDVJklL6-18" value="1.2" style="swimlane;html=1;fontStyle=0;childLayout=stackLayout;horizontal=1;startSize=26;fillColor=#e0e0e0;horizontalStack=0;resizeParent=1;resizeLast=0;collapsible=1;marginBottom=0;swimlaneFillColor=#ffffff;align=center;rounded=1;shadow=0;comic=0;labelBackgroundColor=none;strokeWidth=1;fontFamily=Verdana;fontSize=12" vertex="1" parent="1">
          <mxGeometry x="220" y="119" width="140" height="52" as="geometry" />
        </mxCell>
        <mxCell id="qtkRwHgVHN03jDVJklL6-19" value="Row 1" style="text;html=1;strokeColor=none;fillColor=none;spacingLeft=4;spacingRight=4;whiteSpace=wrap;overflow=hidden;rotatable=0;points=[[0,0.5],[1,0.5]];portConstraint=eastwest;align=center;" vertex="1" parent="qtkRwHgVHN03jDVJklL6-18">
          <mxGeometry y="26" width="140" height="26" as="geometry" />
        </mxCell>
        <mxCell id="qtkRwHgVHN03jDVJklL6-20" style="edgeStyle=orthogonalEdgeStyle;html=1;labelBackgroundColor=none;startFill=0;startSize=8;endFill=1;endSize=8;fontFamily=Verdana;fontSize=12;rounded=0;" edge="1" parent="1" source="qtkRwHgVHN03jDVJklL6-21" target="qtkRwHgVHN03jDVJklL6-2">
          <mxGeometry relative="1" as="geometry">
            <Array as="points">
              <mxPoint x="780" y="196" />
            </Array>
          </mxGeometry>
        </mxCell>
        <mxCell id="qtkRwHgVHN03jDVJklL6-21" value="1.9" style="swimlane;html=1;fontStyle=0;childLayout=stackLayout;horizontal=1;startSize=26;fillColor=#e0e0e0;horizontalStack=0;resizeParent=1;resizeLast=0;collapsible=1;marginBottom=0;swimlaneFillColor=#ffffff;align=center;rounded=1;shadow=0;comic=0;labelBackgroundColor=none;strokeWidth=1;fontFamily=Verdana;fontSize=12" vertex="1" parent="1">
          <mxGeometry x="710" y="119" width="140" height="52" as="geometry" />
        </mxCell>
        <mxCell id="qtkRwHgVHN03jDVJklL6-22" value="Row 1" style="text;html=1;strokeColor=none;fillColor=none;spacingLeft=4;spacingRight=4;whiteSpace=wrap;overflow=hidden;rotatable=0;points=[[0,0.5],[1,0.5]];portConstraint=eastwest;align=center;" vertex="1" parent="qtkRwHgVHN03jDVJklL6-21">
          <mxGeometry y="26" width="140" height="26" as="geometry" />
        </mxCell>
        <mxCell id="qtkRwHgVHN03jDVJklL6-23" style="edgeStyle=none;html=1;labelBackgroundColor=none;startFill=0;startSize=8;endFill=1;endSize=8;fontFamily=Verdana;fontSize=12;rounded=0;" edge="1" parent="1" source="qtkRwHgVHN03jDVJklL6-24" target="qtkRwHgVHN03jDVJklL6-34">
          <mxGeometry relative="1" as="geometry" />
        </mxCell>
        <mxCell id="qtkRwHgVHN03jDVJklL6-24" value="1.3" style="swimlane;html=1;fontStyle=0;childLayout=stackLayout;horizontal=1;startSize=26;fillColor=#e0e0e0;horizontalStack=0;resizeParent=1;resizeLast=0;collapsible=1;marginBottom=0;swimlaneFillColor=#ffffff;align=center;rounded=1;shadow=0;comic=0;labelBackgroundColor=none;strokeWidth=1;fontFamily=Verdana;fontSize=12" vertex="1" parent="1">
          <mxGeometry x="220" y="271" width="140" height="52" as="geometry" />
        </mxCell>
        <mxCell id="qtkRwHgVHN03jDVJklL6-25" value="Row 1" style="text;html=1;strokeColor=none;fillColor=none;spacingLeft=4;spacingRight=4;whiteSpace=wrap;overflow=hidden;rotatable=0;points=[[0,0.5],[1,0.5]];portConstraint=eastwest;align=center;" vertex="1" parent="qtkRwHgVHN03jDVJklL6-24">
          <mxGeometry y="26" width="140" height="26" as="geometry" />
        </mxCell>
        <mxCell id="qtkRwHgVHN03jDVJklL6-26" style="edgeStyle=orthogonalEdgeStyle;html=1;labelBackgroundColor=none;startFill=0;startSize=8;endFill=1;endSize=8;fontFamily=Verdana;fontSize=12;rounded=0;" edge="1" parent="1" source="qtkRwHgVHN03jDVJklL6-27" target="qtkRwHgVHN03jDVJklL6-12">
          <mxGeometry relative="1" as="geometry">
            <Array as="points">
              <mxPoint x="620" y="366" />
            </Array>
          </mxGeometry>
        </mxCell>
        <mxCell id="qtkRwHgVHN03jDVJklL6-27" value="1.8" style="swimlane;html=1;fontStyle=0;childLayout=stackLayout;horizontal=1;startSize=26;fillColor=#e0e0e0;horizontalStack=0;resizeParent=1;resizeLast=0;collapsible=1;marginBottom=0;swimlaneFillColor=#ffffff;align=center;rounded=1;shadow=0;comic=0;labelBackgroundColor=none;strokeWidth=1;fontFamily=Verdana;fontSize=12" vertex="1" parent="1">
          <mxGeometry x="550" y="270" width="140" height="52" as="geometry" />
        </mxCell>
        <mxCell id="qtkRwHgVHN03jDVJklL6-28" value="Row 1" style="text;html=1;strokeColor=none;fillColor=none;spacingLeft=4;spacingRight=4;whiteSpace=wrap;overflow=hidden;rotatable=0;points=[[0,0.5],[1,0.5]];portConstraint=eastwest;align=center;" vertex="1" parent="qtkRwHgVHN03jDVJklL6-27">
          <mxGeometry y="26" width="140" height="26" as="geometry" />
        </mxCell>
        <mxCell id="qtkRwHgVHN03jDVJklL6-29" style="edgeStyle=none;html=1;labelBackgroundColor=none;startFill=0;startSize=8;endFill=1;endSize=8;fontFamily=Verdana;fontSize=12;rounded=0;" edge="1" parent="1" source="qtkRwHgVHN03jDVJklL6-30" target="qtkRwHgVHN03jDVJklL6-40">
          <mxGeometry relative="1" as="geometry" />
        </mxCell>
        <mxCell id="qtkRwHgVHN03jDVJklL6-30" value="1.1" style="swimlane;html=1;fontStyle=0;childLayout=stackLayout;horizontal=1;startSize=26;fillColor=#e0e0e0;horizontalStack=0;resizeParent=1;resizeLast=0;collapsible=1;marginBottom=0;swimlaneFillColor=#ffffff;align=center;rounded=1;shadow=0;comic=0;labelBackgroundColor=none;strokeWidth=1;fontFamily=Verdana;fontSize=12" vertex="1" parent="1">
          <mxGeometry x="20" y="406" width="140" height="52" as="geometry" />
        </mxCell>
        <mxCell id="qtkRwHgVHN03jDVJklL6-31" value="Row 1" style="text;html=1;strokeColor=none;fillColor=none;spacingLeft=4;spacingRight=4;whiteSpace=wrap;overflow=hidden;rotatable=0;points=[[0,0.5],[1,0.5]];portConstraint=eastwest;align=center;" vertex="1" parent="qtkRwHgVHN03jDVJklL6-30">
          <mxGeometry y="26" width="140" height="26" as="geometry" />
        </mxCell>
        <mxCell id="qtkRwHgVHN03jDVJklL6-32" style="edgeStyle=none;html=1;labelBackgroundColor=none;startFill=0;startSize=8;endFill=1;endSize=8;fontFamily=Verdana;fontSize=12;rounded=0;" edge="1" parent="1" source="qtkRwHgVHN03jDVJklL6-34" target="qtkRwHgVHN03jDVJklL6-37">
          <mxGeometry relative="1" as="geometry" />
        </mxCell>
        <mxCell id="qtkRwHgVHN03jDVJklL6-33" style="edgeStyle=none;html=1;labelBackgroundColor=none;startFill=0;startSize=8;endFill=1;endSize=8;fontFamily=Verdana;fontSize=12;rounded=0;" edge="1" parent="1" source="qtkRwHgVHN03jDVJklL6-34" target="qtkRwHgVHN03jDVJklL6-30">
          <mxGeometry relative="1" as="geometry" />
        </mxCell>
        <mxCell id="qtkRwHgVHN03jDVJklL6-34" value="1.4" style="swimlane;html=1;fontStyle=0;childLayout=stackLayout;horizontal=1;startSize=26;fillColor=#e0e0e0;horizontalStack=0;resizeParent=1;resizeLast=0;collapsible=1;marginBottom=0;swimlaneFillColor=#ffffff;align=center;rounded=1;shadow=0;comic=0;labelBackgroundColor=none;strokeWidth=1;fontFamily=Verdana;fontSize=12" vertex="1" parent="1">
          <mxGeometry x="220" y="406" width="140" height="52" as="geometry" />
        </mxCell>
        <mxCell id="qtkRwHgVHN03jDVJklL6-35" value="Row 1" style="text;html=1;strokeColor=none;fillColor=none;spacingLeft=4;spacingRight=4;whiteSpace=wrap;overflow=hidden;rotatable=0;points=[[0,0.5],[1,0.5]];portConstraint=eastwest;align=center;" vertex="1" parent="qtkRwHgVHN03jDVJklL6-34">
          <mxGeometry y="26" width="140" height="26" as="geometry" />
        </mxCell>
        <mxCell id="qtkRwHgVHN03jDVJklL6-36" style="edgeStyle=none;html=1;labelBackgroundColor=none;startFill=0;startSize=8;endFill=1;endSize=8;fontFamily=Verdana;fontSize=12;rounded=0;" edge="1" parent="1" source="qtkRwHgVHN03jDVJklL6-37" target="qtkRwHgVHN03jDVJklL6-41">
          <mxGeometry relative="1" as="geometry" />
        </mxCell>
        <mxCell id="qtkRwHgVHN03jDVJklL6-37" value="1.7" style="swimlane;html=1;fontStyle=0;childLayout=stackLayout;horizontal=1;startSize=26;fillColor=#e0e0e0;horizontalStack=0;resizeParent=1;resizeLast=0;collapsible=1;marginBottom=0;swimlaneFillColor=#ffffff;align=center;rounded=1;shadow=0;comic=0;labelBackgroundColor=none;strokeWidth=1;fontFamily=Verdana;fontSize=12" vertex="1" parent="1">
          <mxGeometry x="400" y="406" width="140" height="52" as="geometry" />
        </mxCell>
        <mxCell id="qtkRwHgVHN03jDVJklL6-38" value="Row 1" style="text;html=1;strokeColor=none;fillColor=none;spacingLeft=4;spacingRight=4;whiteSpace=wrap;overflow=hidden;rotatable=0;points=[[0,0.5],[1,0.5]];portConstraint=eastwest;align=center;" vertex="1" parent="qtkRwHgVHN03jDVJklL6-37">
          <mxGeometry y="26" width="140" height="26" as="geometry" />
        </mxCell>
        <mxCell id="qtkRwHgVHN03jDVJklL6-39" style="edgeStyle=orthogonalEdgeStyle;html=1;labelBackgroundColor=none;startFill=0;startSize=8;endFill=1;endSize=8;fontFamily=Verdana;fontSize=12;rounded=0;" edge="1" parent="1" source="qtkRwHgVHN03jDVJklL6-40" target="qtkRwHgVHN03jDVJklL6-18">
          <mxGeometry relative="1" as="geometry">
            <Array as="points">
              <mxPoint x="90" y="145" />
            </Array>
          </mxGeometry>
        </mxCell>
        <mxCell id="qtkRwHgVHN03jDVJklL6-40" value="Object" style="whiteSpace=wrap;html=1;rounded=0;shadow=0;comic=0;labelBackgroundColor=none;strokeWidth=1;fontFamily=Verdana;fontSize=12;align=center;" vertex="1" parent="1">
          <mxGeometry x="30" y="273" width="120" height="50" as="geometry" />
        </mxCell>
        <mxCell id="qtkRwHgVHN03jDVJklL6-41" value="Object" style="whiteSpace=wrap;html=1;rounded=0;shadow=0;comic=0;labelBackgroundColor=none;strokeWidth=1;fontFamily=Verdana;fontSize=12;align=center;" vertex="1" parent="1">
          <mxGeometry x="410" y="273" width="120" height="50" as="geometry" />
        </mxCell>
        <mxCell id="qtkRwHgVHN03jDVJklL6-42" style="edgeStyle=none;html=1;labelBackgroundColor=none;startFill=0;startSize=8;endFill=1;endSize=8;fontFamily=Verdana;fontSize=12;rounded=0;" edge="1" parent="1" source="qtkRwHgVHN03jDVJklL6-44" target="qtkRwHgVHN03jDVJklL6-27">
          <mxGeometry relative="1" as="geometry" />
        </mxCell>
        <mxCell id="qtkRwHgVHN03jDVJklL6-43" style="edgeStyle=none;html=1;labelBackgroundColor=none;startFill=0;startSize=8;endFill=1;endSize=8;fontFamily=Verdana;fontSize=12;rounded=0;" edge="1" parent="1" source="qtkRwHgVHN03jDVJklL6-44" target="qtkRwHgVHN03jDVJklL6-21">
          <mxGeometry relative="1" as="geometry" />
        </mxCell>
        <mxCell id="qtkRwHgVHN03jDVJklL6-44" value="" style="ellipse;whiteSpace=wrap;html=1;rounded=1;shadow=0;comic=0;labelBackgroundColor=none;strokeWidth=1;fontFamily=Verdana;fontSize=12;align=center;" vertex="1" parent="1">
          <mxGeometry x="605" y="131" width="30" height="30" as="geometry" />
        </mxCell>
      </root>
    </mxGraphModel>
  </diagram>
  <diagram id="k4l-l_bGOsZAfYK9_3le" name="时序图">
    <mxGraphModel dx="1422" dy="785" grid="1" gridSize="10" guides="1" tooltips="1" connect="1" arrows="1" fold="1" page="1" pageScale="1" pageWidth="827" pageHeight="1169" math="0" shadow="0">
      <root>
        <mxCell id="0" />
        <mxCell id="1" parent="0" />
        <mxCell id="_X14nfE-kYPutZGuniUv-1" value=":Object" style="shape=umlLifeline;perimeter=lifelinePerimeter;whiteSpace=wrap;html=1;container=1;collapsible=0;recursiveResize=0;outlineConnect=0;rounded=1;shadow=0;comic=0;labelBackgroundColor=none;strokeWidth=1;fontFamily=Verdana;fontSize=12;align=center;" vertex="1" parent="1">
          <mxGeometry x="160" y="70" width="100" height="580" as="geometry" />
        </mxCell>
        <mxCell id="_X14nfE-kYPutZGuniUv-2" value="" style="html=1;points=[];perimeter=orthogonalPerimeter;rounded=0;shadow=0;comic=0;labelBackgroundColor=none;strokeWidth=1;fontFamily=Verdana;fontSize=12;align=center;" vertex="1" parent="_X14nfE-kYPutZGuniUv-1">
          <mxGeometry x="45" y="100" width="10" height="230" as="geometry" />
        </mxCell>
        <mxCell id="_X14nfE-kYPutZGuniUv-3" value=":Object" style="shape=umlLifeline;perimeter=lifelinePerimeter;whiteSpace=wrap;html=1;container=1;collapsible=0;recursiveResize=0;outlineConnect=0;rounded=1;shadow=0;comic=0;labelBackgroundColor=none;strokeWidth=1;fontFamily=Verdana;fontSize=12;align=center;" vertex="1" parent="1">
          <mxGeometry x="320" y="70" width="100" height="580" as="geometry" />
        </mxCell>
        <mxCell id="_X14nfE-kYPutZGuniUv-4" value="" style="html=1;points=[];perimeter=orthogonalPerimeter;rounded=0;shadow=0;comic=0;labelBackgroundColor=none;strokeWidth=1;fontFamily=Verdana;fontSize=12;align=center;" vertex="1" parent="_X14nfE-kYPutZGuniUv-3">
          <mxGeometry x="45" y="120" width="10" height="200" as="geometry" />
        </mxCell>
        <mxCell id="_X14nfE-kYPutZGuniUv-5" value=":Object" style="shape=umlLifeline;perimeter=lifelinePerimeter;whiteSpace=wrap;html=1;container=1;collapsible=0;recursiveResize=0;outlineConnect=0;rounded=1;shadow=0;comic=0;labelBackgroundColor=none;strokeWidth=1;fontFamily=Verdana;fontSize=12;align=center;" vertex="1" parent="1">
          <mxGeometry x="460" y="70" width="100" height="580" as="geometry" />
        </mxCell>
        <mxCell id="_X14nfE-kYPutZGuniUv-6" value=":Object" style="shape=umlLifeline;perimeter=lifelinePerimeter;whiteSpace=wrap;html=1;container=1;collapsible=0;recursiveResize=0;outlineConnect=0;rounded=1;shadow=0;comic=0;labelBackgroundColor=none;strokeWidth=1;fontFamily=Verdana;fontSize=12;align=center;" vertex="1" parent="1">
          <mxGeometry x="600" y="70" width="100" height="580" as="geometry" />
        </mxCell>
        <mxCell id="_X14nfE-kYPutZGuniUv-7" value=":Object" style="shape=umlLifeline;perimeter=lifelinePerimeter;whiteSpace=wrap;html=1;container=1;collapsible=0;recursiveResize=0;outlineConnect=0;rounded=1;shadow=0;comic=0;labelBackgroundColor=none;strokeWidth=1;fontFamily=Verdana;fontSize=12;align=center;" vertex="1" parent="1">
          <mxGeometry x="740" y="70" width="100" height="580" as="geometry" />
        </mxCell>
        <mxCell id="_X14nfE-kYPutZGuniUv-8" value=":Object" style="shape=umlLifeline;perimeter=lifelinePerimeter;whiteSpace=wrap;html=1;container=1;collapsible=0;recursiveResize=0;outlineConnect=0;rounded=1;shadow=0;comic=0;labelBackgroundColor=none;strokeWidth=1;fontFamily=Verdana;fontSize=12;align=center;" vertex="1" parent="1">
          <mxGeometry x="880" y="70" width="100" height="580" as="geometry" />
        </mxCell>
        <mxCell id="_X14nfE-kYPutZGuniUv-9" value=":Object" style="shape=umlLifeline;perimeter=lifelinePerimeter;whiteSpace=wrap;html=1;container=1;collapsible=0;recursiveResize=0;outlineConnect=0;rounded=1;shadow=0;comic=0;labelBackgroundColor=none;strokeWidth=1;fontFamily=Verdana;fontSize=12;align=center;" vertex="1" parent="1">
          <mxGeometry x="20" y="70" width="100" height="580" as="geometry" />
        </mxCell>
        <mxCell id="_X14nfE-kYPutZGuniUv-10" value="" style="html=1;points=[];perimeter=orthogonalPerimeter;rounded=0;shadow=0;comic=0;labelBackgroundColor=none;strokeWidth=1;fontFamily=Verdana;fontSize=12;align=center;" vertex="1" parent="_X14nfE-kYPutZGuniUv-9">
          <mxGeometry x="45" y="100" width="10" height="440" as="geometry" />
        </mxCell>
        <mxCell id="_X14nfE-kYPutZGuniUv-11" value="" style="html=1;points=[];perimeter=orthogonalPerimeter;rounded=0;shadow=0;comic=0;labelBackgroundColor=none;strokeWidth=1;fontFamily=Verdana;fontSize=12;align=center;" vertex="1" parent="1">
          <mxGeometry x="505" y="210" width="10" height="180" as="geometry" />
        </mxCell>
        <mxCell id="_X14nfE-kYPutZGuniUv-12" value="dispatch" style="html=1;verticalAlign=bottom;endArrow=block;labelBackgroundColor=none;fontFamily=Verdana;fontSize=12;edgeStyle=elbowEdgeStyle;elbow=vertical;rounded=0;" edge="1" parent="1" source="_X14nfE-kYPutZGuniUv-4" target="_X14nfE-kYPutZGuniUv-11">
          <mxGeometry relative="1" as="geometry">
            <mxPoint x="430" y="210" as="sourcePoint" />
            <Array as="points">
              <mxPoint x="380" y="210" />
            </Array>
          </mxGeometry>
        </mxCell>
        <mxCell id="_X14nfE-kYPutZGuniUv-13" value="" style="html=1;points=[];perimeter=orthogonalPerimeter;rounded=0;shadow=0;comic=0;labelBackgroundColor=none;strokeWidth=1;fontFamily=Verdana;fontSize=12;align=center;" vertex="1" parent="1">
          <mxGeometry x="645" y="220" width="10" height="40" as="geometry" />
        </mxCell>
        <mxCell id="_X14nfE-kYPutZGuniUv-14" value="dispatch" style="html=1;verticalAlign=bottom;endArrow=block;entryX=0;entryY=0;labelBackgroundColor=none;fontFamily=Verdana;fontSize=12;edgeStyle=elbowEdgeStyle;elbow=vertical;rounded=0;" edge="1" parent="1" source="_X14nfE-kYPutZGuniUv-11" target="_X14nfE-kYPutZGuniUv-13">
          <mxGeometry relative="1" as="geometry">
            <mxPoint x="570" y="220" as="sourcePoint" />
          </mxGeometry>
        </mxCell>
        <mxCell id="_X14nfE-kYPutZGuniUv-15" value="return" style="html=1;verticalAlign=bottom;endArrow=open;dashed=1;endSize=8;labelBackgroundColor=none;fontFamily=Verdana;fontSize=12;edgeStyle=elbowEdgeStyle;elbow=vertical;rounded=0;" edge="1" parent="1" source="_X14nfE-kYPutZGuniUv-13" target="_X14nfE-kYPutZGuniUv-11">
          <mxGeometry relative="1" as="geometry">
            <mxPoint x="570" y="296" as="targetPoint" />
            <Array as="points">
              <mxPoint x="590" y="250" />
              <mxPoint x="620" y="250" />
            </Array>
          </mxGeometry>
        </mxCell>
        <mxCell id="_X14nfE-kYPutZGuniUv-16" value="" style="html=1;points=[];perimeter=orthogonalPerimeter;rounded=0;shadow=0;comic=0;labelBackgroundColor=none;strokeWidth=1;fontFamily=Verdana;fontSize=12;align=center;" vertex="1" parent="1">
          <mxGeometry x="505" y="430" width="10" height="140" as="geometry" />
        </mxCell>
        <mxCell id="_X14nfE-kYPutZGuniUv-17" value="dispatch" style="html=1;verticalAlign=bottom;endArrow=block;entryX=0;entryY=0;labelBackgroundColor=none;fontFamily=Verdana;fontSize=12;rounded=0;" edge="1" parent="1" source="_X14nfE-kYPutZGuniUv-10" target="_X14nfE-kYPutZGuniUv-16">
          <mxGeometry relative="1" as="geometry">
            <mxPoint x="430" y="410" as="sourcePoint" />
          </mxGeometry>
        </mxCell>
        <mxCell id="_X14nfE-kYPutZGuniUv-18" value="" style="html=1;points=[];perimeter=orthogonalPerimeter;rounded=0;shadow=0;comic=0;labelBackgroundColor=none;strokeColor=#000000;strokeWidth=1;fillColor=#FFFFFF;fontFamily=Verdana;fontSize=12;fontColor=#000000;align=center;" vertex="1" parent="1">
          <mxGeometry x="925" y="450" width="10" height="30" as="geometry" />
        </mxCell>
        <mxCell id="_X14nfE-kYPutZGuniUv-19" value="dispatch" style="html=1;verticalAlign=bottom;endArrow=block;entryX=0;entryY=0;labelBackgroundColor=none;fontFamily=Verdana;fontSize=12;rounded=0;" edge="1" parent="1" source="_X14nfE-kYPutZGuniUv-16" target="_X14nfE-kYPutZGuniUv-18">
          <mxGeometry relative="1" as="geometry">
            <mxPoint x="850" y="330" as="sourcePoint" />
          </mxGeometry>
        </mxCell>
        <mxCell id="_X14nfE-kYPutZGuniUv-20" value="return" style="html=1;verticalAlign=bottom;endArrow=open;dashed=1;endSize=8;exitX=0;exitY=0.95;labelBackgroundColor=none;fontFamily=Verdana;fontSize=12;rounded=0;" edge="1" parent="1" source="_X14nfE-kYPutZGuniUv-18" target="_X14nfE-kYPutZGuniUv-16">
          <mxGeometry relative="1" as="geometry">
            <mxPoint x="850" y="406" as="targetPoint" />
          </mxGeometry>
        </mxCell>
        <mxCell id="_X14nfE-kYPutZGuniUv-21" value="" style="html=1;points=[];perimeter=orthogonalPerimeter;rounded=0;shadow=0;comic=0;labelBackgroundColor=none;strokeWidth=1;fontFamily=Verdana;fontSize=12;align=center;" vertex="1" parent="1">
          <mxGeometry x="790" y="540" width="10" height="60" as="geometry" />
        </mxCell>
        <mxCell id="_X14nfE-kYPutZGuniUv-22" value="dispatch" style="html=1;verticalAlign=bottom;endArrow=block;entryX=0;entryY=0;labelBackgroundColor=none;fontFamily=Verdana;fontSize=12;edgeStyle=elbowEdgeStyle;elbow=vertical;rounded=0;" edge="1" parent="1" source="_X14nfE-kYPutZGuniUv-29" target="_X14nfE-kYPutZGuniUv-21">
          <mxGeometry relative="1" as="geometry">
            <mxPoint x="720" y="540" as="sourcePoint" />
          </mxGeometry>
        </mxCell>
        <mxCell id="_X14nfE-kYPutZGuniUv-23" value="return" style="html=1;verticalAlign=bottom;endArrow=open;dashed=1;endSize=8;labelBackgroundColor=none;fontFamily=Verdana;fontSize=12;edgeStyle=elbowEdgeStyle;elbow=vertical;rounded=0;" edge="1" parent="1" source="_X14nfE-kYPutZGuniUv-21" target="_X14nfE-kYPutZGuniUv-10">
          <mxGeometry relative="1" as="geometry">
            <mxPoint x="720" y="616" as="targetPoint" />
            <Array as="points">
              <mxPoint x="490" y="590" />
            </Array>
          </mxGeometry>
        </mxCell>
        <mxCell id="_X14nfE-kYPutZGuniUv-24" value="dispatch" style="html=1;verticalAlign=bottom;endArrow=block;entryX=0;entryY=0;labelBackgroundColor=none;fontFamily=Verdana;fontSize=12;edgeStyle=elbowEdgeStyle;elbow=vertical;rounded=0;" edge="1" parent="1" source="_X14nfE-kYPutZGuniUv-10" target="_X14nfE-kYPutZGuniUv-2">
          <mxGeometry relative="1" as="geometry">
            <mxPoint x="140" y="180" as="sourcePoint" />
          </mxGeometry>
        </mxCell>
        <mxCell id="_X14nfE-kYPutZGuniUv-25" value="dispatch" style="html=1;verticalAlign=bottom;endArrow=block;entryX=0;entryY=0;labelBackgroundColor=none;fontFamily=Verdana;fontSize=12;edgeStyle=elbowEdgeStyle;elbow=vertical;rounded=0;" edge="1" parent="1" source="_X14nfE-kYPutZGuniUv-2" target="_X14nfE-kYPutZGuniUv-4">
          <mxGeometry relative="1" as="geometry">
            <mxPoint x="290" y="190" as="sourcePoint" />
          </mxGeometry>
        </mxCell>
        <mxCell id="_X14nfE-kYPutZGuniUv-26" value="" style="html=1;points=[];perimeter=orthogonalPerimeter;rounded=0;shadow=0;comic=0;labelBackgroundColor=none;strokeWidth=1;fontFamily=Verdana;fontSize=12;align=center;" vertex="1" parent="1">
          <mxGeometry x="510" y="290" width="10" height="70" as="geometry" />
        </mxCell>
        <mxCell id="_X14nfE-kYPutZGuniUv-27" value="dispatch" style="html=1;verticalAlign=bottom;endArrow=block;labelBackgroundColor=none;fontFamily=Verdana;fontSize=12;elbow=vertical;edgeStyle=orthogonalEdgeStyle;curved=1;entryX=1;entryY=0.286;entryPerimeter=0;exitX=1.038;exitY=0.345;exitPerimeter=0;rounded=0;" edge="1" parent="1" source="_X14nfE-kYPutZGuniUv-11" target="_X14nfE-kYPutZGuniUv-26">
          <mxGeometry relative="1" as="geometry">
            <mxPoint x="385" y="220" as="sourcePoint" />
            <mxPoint x="515" y="220" as="targetPoint" />
            <Array as="points">
              <mxPoint x="570" y="272" />
              <mxPoint x="570" y="310" />
            </Array>
          </mxGeometry>
        </mxCell>
        <mxCell id="_X14nfE-kYPutZGuniUv-28" value="dispatch" style="html=1;verticalAlign=bottom;endArrow=block;labelBackgroundColor=none;fontFamily=Verdana;fontSize=12;elbow=vertical;edgeStyle=orthogonalEdgeStyle;curved=1;exitX=1.066;exitY=0.713;exitPerimeter=0;rounded=0;" edge="1" parent="1" source="_X14nfE-kYPutZGuniUv-26">
          <mxGeometry relative="1" as="geometry">
            <mxPoint x="530.3333333333333" y="340" as="sourcePoint" />
            <mxPoint x="515" y="379" as="targetPoint" />
            <Array as="points">
              <mxPoint x="570" y="340" />
              <mxPoint x="570" y="379" />
            </Array>
          </mxGeometry>
        </mxCell>
        <mxCell id="_X14nfE-kYPutZGuniUv-29" value="" style="html=1;points=[];perimeter=orthogonalPerimeter;rounded=0;shadow=0;comic=0;labelBackgroundColor=none;strokeWidth=1;fontFamily=Verdana;fontSize=12;align=center;" vertex="1" parent="1">
          <mxGeometry x="510" y="510" width="10" height="40" as="geometry" />
        </mxCell>
        <mxCell id="_X14nfE-kYPutZGuniUv-30" value="dispatch" style="html=1;verticalAlign=bottom;endArrow=block;labelBackgroundColor=none;fontFamily=Verdana;fontSize=12;elbow=vertical;edgeStyle=orthogonalEdgeStyle;curved=1;entryX=1;entryY=0.286;entryPerimeter=0;exitX=1.038;exitY=0.345;exitPerimeter=0;rounded=0;" edge="1" parent="1">
          <mxGeometry relative="1" as="geometry">
            <mxPoint x="515.3333333333335" y="491" as="sourcePoint" />
            <mxPoint x="520.3333333333335" y="529.3333333333334" as="targetPoint" />
            <Array as="points">
              <mxPoint x="570" y="491" />
              <mxPoint x="570" y="529" />
            </Array>
          </mxGeometry>
        </mxCell>
        <mxCell id="_X14nfE-kYPutZGuniUv-31" value="Note" style="shape=note;whiteSpace=wrap;html=1;size=14;verticalAlign=top;align=left;spacingTop=-6;rounded=0;shadow=0;comic=0;labelBackgroundColor=none;strokeWidth=1;fontFamily=Verdana;fontSize=12" vertex="1" parent="1">
          <mxGeometry x="20" y="20" width="100" height="35" as="geometry" />
        </mxCell>
        <mxCell id="_X14nfE-kYPutZGuniUv-32" value="Note" style="shape=note;whiteSpace=wrap;html=1;size=14;verticalAlign=top;align=left;spacingTop=-6;rounded=0;shadow=0;comic=0;labelBackgroundColor=none;strokeWidth=1;fontFamily=Verdana;fontSize=12" vertex="1" parent="1">
          <mxGeometry x="160" y="20" width="100" height="35" as="geometry" />
        </mxCell>
        <mxCell id="_X14nfE-kYPutZGuniUv-33" value="Note" style="shape=note;whiteSpace=wrap;html=1;size=14;verticalAlign=top;align=left;spacingTop=-6;rounded=0;shadow=0;comic=0;labelBackgroundColor=none;strokeWidth=1;fontFamily=Verdana;fontSize=12" vertex="1" parent="1">
          <mxGeometry x="320" y="20" width="100" height="35" as="geometry" />
        </mxCell>
        <mxCell id="_X14nfE-kYPutZGuniUv-34" value="Note" style="shape=note;whiteSpace=wrap;html=1;size=14;verticalAlign=top;align=left;spacingTop=-6;rounded=0;shadow=0;comic=0;labelBackgroundColor=none;strokeWidth=1;fontFamily=Verdana;fontSize=12" vertex="1" parent="1">
          <mxGeometry x="460" y="20" width="100" height="35" as="geometry" />
        </mxCell>
        <mxCell id="_X14nfE-kYPutZGuniUv-35" value="Note" style="shape=note;whiteSpace=wrap;html=1;size=14;verticalAlign=top;align=left;spacingTop=-6;rounded=0;shadow=0;comic=0;labelBackgroundColor=none;strokeWidth=1;fontFamily=Verdana;fontSize=12" vertex="1" parent="1">
          <mxGeometry x="600" y="20" width="100" height="35" as="geometry" />
        </mxCell>
        <mxCell id="_X14nfE-kYPutZGuniUv-36" value="Note" style="shape=note;whiteSpace=wrap;html=1;size=14;verticalAlign=top;align=left;spacingTop=-6;rounded=0;shadow=0;comic=0;labelBackgroundColor=none;strokeWidth=1;fontFamily=Verdana;fontSize=12" vertex="1" parent="1">
          <mxGeometry x="740" y="20" width="100" height="35" as="geometry" />
        </mxCell>
        <mxCell id="_X14nfE-kYPutZGuniUv-37" value="Note" style="shape=note;whiteSpace=wrap;html=1;size=14;verticalAlign=top;align=left;spacingTop=-6;rounded=0;shadow=0;comic=0;labelBackgroundColor=none;strokeWidth=1;fontFamily=Verdana;fontSize=12" vertex="1" parent="1">
          <mxGeometry x="880" y="20" width="100" height="35" as="geometry" />
        </mxCell>
      </root>
    </mxGraphModel>
  </diagram>
  <diagram id="CJykOI-yDNGGtZhUK_i_" name="结构图">
    <mxGraphModel dx="1422" dy="785" grid="1" gridSize="10" guides="1" tooltips="1" connect="1" arrows="1" fold="1" page="1" pageScale="1" pageWidth="827" pageHeight="1169" math="0" shadow="0">
      <root>
        <mxCell id="0" />
        <mxCell id="1" parent="0" />
        <mxCell id="8GHgT82N1Hcj3yd6LWvl-1" value="Orgchart" style="swimlane;html=1;startSize=20;horizontal=1;containerType=tree;glass=0;" vertex="1" parent="1">
          <mxGeometry x="20" y="20" width="710" height="290" as="geometry" />
        </mxCell>
        <UserObject label="Tessa Miller&lt;br&gt;&lt;i style=&quot;color: gray&quot;&gt;CFO&lt;/i&gt;&lt;br&gt;&lt;a href=&quot;mailto:me@example.com&quot;&gt;Email&lt;/a&gt;" name="Tessa Miller" position="CFO" location="Office 1" email="me@example.com" placeholders="1" link="https://www.draw.io" id="8GHgT82N1Hcj3yd6LWvl-2">
          <mxCell style="label;image=https://cdn3.iconfinder.com/data/icons/user-avatars-1/512/users-3-128.png;whiteSpace=wrap;html=1;rounded=0;glass=0;treeMoving=1;treeFolding=1;" vertex="1" parent="8GHgT82N1Hcj3yd6LWvl-1">
            <mxGeometry x="260" y="50" width="180" height="70" as="geometry" />
          </mxCell>
        </UserObject>
        <mxCell id="8GHgT82N1Hcj3yd6LWvl-3" value="" style="endArrow=blockThin;endFill=1;fontSize=11;edgeStyle=elbowEdgeStyle;elbow=vertical;rounded=0;" edge="1" parent="8GHgT82N1Hcj3yd6LWvl-1" source="8GHgT82N1Hcj3yd6LWvl-2" target="8GHgT82N1Hcj3yd6LWvl-4">
          <mxGeometry relative="1" as="geometry" />
        </mxCell>
        <UserObject label="Edward Morrison&lt;br&gt;&lt;i style=&quot;color: gray&quot;&gt;Brand Manager&lt;/i&gt;&lt;br&gt;&lt;a href=&quot;mailto:me@example.com&quot;&gt;Email&lt;/a&gt;" name="Edward Morrison" position="Brand Manager" location="Office 2" email="me@example.com" placeholders="1" link="https://www.draw.io" id="8GHgT82N1Hcj3yd6LWvl-4">
          <mxCell style="label;image=https://cdn3.iconfinder.com/data/icons/user-avatars-1/512/users-10-3-128.png;whiteSpace=wrap;html=1;rounded=0;glass=0;treeFolding=1;treeMoving=1;" vertex="1" parent="8GHgT82N1Hcj3yd6LWvl-1">
            <mxGeometry x="40" y="180" width="180" height="80" as="geometry" />
          </mxCell>
        </UserObject>
        <mxCell id="8GHgT82N1Hcj3yd6LWvl-5" value="" style="endArrow=blockThin;endFill=1;fontSize=11;edgeStyle=elbowEdgeStyle;elbow=vertical;rounded=0;" edge="1" parent="8GHgT82N1Hcj3yd6LWvl-1" source="8GHgT82N1Hcj3yd6LWvl-2" target="8GHgT82N1Hcj3yd6LWvl-6">
          <mxGeometry relative="1" as="geometry" />
        </mxCell>
        <UserObject label="Evan Valet&lt;br&gt;&lt;i style=&quot;color: gray&quot;&gt;HR Director&lt;/i&gt;&lt;br&gt;&lt;a href=&quot;mailto:me@example.com&quot;&gt;Email&lt;/a&gt;" name="Evan Valet" position="HR Director" location="Office 4" email="me@example.com" placeholders="1" link="https://www.draw.io" id="8GHgT82N1Hcj3yd6LWvl-6">
          <mxCell style="label;image=https://cdn3.iconfinder.com/data/icons/user-avatars-1/512/users-9-2-128.png;whiteSpace=wrap;html=1;rounded=0;glass=0;treeFolding=1;treeMoving=1;" vertex="1" parent="8GHgT82N1Hcj3yd6LWvl-1">
            <mxGeometry x="260" y="180" width="180" height="80" as="geometry" />
          </mxCell>
        </UserObject>
        <mxCell id="8GHgT82N1Hcj3yd6LWvl-7" value="" style="endArrow=blockThin;endFill=1;fontSize=11;edgeStyle=elbowEdgeStyle;elbow=vertical;rounded=0;" edge="1" parent="8GHgT82N1Hcj3yd6LWvl-1" source="8GHgT82N1Hcj3yd6LWvl-2" target="8GHgT82N1Hcj3yd6LWvl-8">
          <mxGeometry relative="1" as="geometry" />
        </mxCell>
        <UserObject label="Alison Donovan&lt;br&gt;&lt;i style=&quot;color: gray&quot;&gt;System Admin&lt;/i&gt;&lt;br&gt;&lt;a href=&quot;mailto:me@example.com&quot;&gt;Email&lt;/a&gt;" name="Alison Donovan" position="System Admin" location="Office 3" email="me@example.com" placeholders="1" link="https://www.draw.io" id="8GHgT82N1Hcj3yd6LWvl-8">
          <mxCell style="label;image=https://cdn3.iconfinder.com/data/icons/user-avatars-1/512/users-2-128.png;whiteSpace=wrap;html=1;rounded=0;glass=0;" vertex="1" parent="8GHgT82N1Hcj3yd6LWvl-1">
            <mxGeometry x="490" y="180" width="180" height="80" as="geometry" />
          </mxCell>
        </UserObject>
      </root>
    </mxGraphModel>
  </diagram>
  <diagram id="pwJ4jMyIwFcZf0LILA7o" name="组件图">
    <mxGraphModel dx="1422" dy="785" grid="1" gridSize="10" guides="1" tooltips="1" connect="1" arrows="1" fold="1" page="1" pageScale="1" pageWidth="827" pageHeight="1169" math="0" shadow="0">
      <root>
        <mxCell id="0" />
        <mxCell id="1" parent="0" />
        <mxCell id="gBENeIbKnuRdoazwzPab-1" value="Block" style="verticalAlign=top;align=left;spacingTop=8;spacingLeft=2;spacingRight=12;shape=cube;size=10;direction=south;fontStyle=4;html=1;rounded=0;shadow=0;comic=0;labelBackgroundColor=none;strokeWidth=1;fontFamily=Verdana;fontSize=12" vertex="1" parent="1">
          <mxGeometry x="20" y="20" width="330" height="220" as="geometry" />
        </mxCell>
        <mxCell id="gBENeIbKnuRdoazwzPab-2" value="Block" style="verticalAlign=top;align=left;spacingTop=8;spacingLeft=2;spacingRight=12;shape=cube;size=10;direction=south;fontStyle=4;html=1;rounded=0;shadow=0;comic=0;labelBackgroundColor=none;strokeWidth=1;fontFamily=Verdana;fontSize=12" vertex="1" parent="1">
          <mxGeometry x="430" y="20" width="330" height="220" as="geometry" />
        </mxCell>
        <mxCell id="gBENeIbKnuRdoazwzPab-3" value="Block" style="verticalAlign=top;align=left;spacingTop=8;spacingLeft=2;spacingRight=12;shape=cube;size=10;direction=south;fontStyle=4;html=1;rounded=0;shadow=0;comic=0;labelBackgroundColor=none;strokeWidth=1;fontFamily=Verdana;fontSize=12" vertex="1" parent="1">
          <mxGeometry x="270" y="360" width="260" height="150" as="geometry" />
        </mxCell>
        <mxCell id="gBENeIbKnuRdoazwzPab-4" value="&amp;laquo;interface&amp;raquo;&lt;br&gt;&lt;b&gt;Name&lt;/b&gt;" style="html=1;rounded=0;shadow=0;comic=0;labelBackgroundColor=none;strokeWidth=1;fontFamily=Verdana;fontSize=12;align=center;" vertex="1" parent="1">
          <mxGeometry x="60" y="90" width="110" height="50" as="geometry" />
        </mxCell>
        <mxCell id="gBENeIbKnuRdoazwzPab-5" value="Module" style="shape=component;align=left;spacingLeft=36;rounded=0;shadow=0;comic=0;labelBackgroundColor=none;strokeWidth=1;fontFamily=Verdana;fontSize=12;html=1;" vertex="1" parent="1">
          <mxGeometry x="210" y="85" width="120" height="60" as="geometry" />
        </mxCell>
        <mxCell id="gBENeIbKnuRdoazwzPab-6" value="" style="ellipse;whiteSpace=wrap;html=1;rounded=0;shadow=0;comic=0;labelBackgroundColor=none;strokeWidth=1;fontFamily=Verdana;fontSize=12;align=center;" vertex="1" parent="1">
          <mxGeometry x="260" y="180" width="20" height="20" as="geometry" />
        </mxCell>
        <mxCell id="gBENeIbKnuRdoazwzPab-7" value="Module" style="shape=component;align=left;spacingLeft=36;rounded=0;shadow=0;comic=0;labelBackgroundColor=none;strokeWidth=1;fontFamily=Verdana;fontSize=12;html=1;" vertex="1" parent="1">
          <mxGeometry x="460" y="85" width="120" height="60" as="geometry" />
        </mxCell>
        <mxCell id="gBENeIbKnuRdoazwzPab-8" value="&amp;laquo;interface&amp;raquo;&lt;br&gt;&lt;b&gt;Name&lt;/b&gt;" style="html=1;rounded=0;shadow=0;comic=0;labelBackgroundColor=none;strokeWidth=1;fontFamily=Verdana;fontSize=12;align=center;" vertex="1" parent="1">
          <mxGeometry x="620" y="90" width="110" height="50" as="geometry" />
        </mxCell>
        <mxCell id="gBENeIbKnuRdoazwzPab-9" value="" style="ellipse;whiteSpace=wrap;html=1;rounded=0;shadow=0;comic=0;labelBackgroundColor=none;strokeWidth=1;fontFamily=Verdana;fontSize=12;align=center;" vertex="1" parent="1">
          <mxGeometry x="520" y="180" width="20" height="20" as="geometry" />
        </mxCell>
        <mxCell id="gBENeIbKnuRdoazwzPab-10" value="Module" style="shape=component;align=left;spacingLeft=36;rounded=0;shadow=0;comic=0;labelBackgroundColor=none;strokeWidth=1;fontFamily=Verdana;fontSize=12;html=1;" vertex="1" parent="1">
          <mxGeometry x="340" y="410" width="120" height="60" as="geometry" />
        </mxCell>
        <mxCell id="gBENeIbKnuRdoazwzPab-11" style="edgeStyle=none;rounded=0;html=1;dashed=1;labelBackgroundColor=none;startArrow=none;startFill=0;startSize=8;endArrow=open;endFill=0;endSize=16;fontFamily=Verdana;fontSize=12;" edge="1" parent="1" source="gBENeIbKnuRdoazwzPab-10" target="gBENeIbKnuRdoazwzPab-6">
          <mxGeometry relative="1" as="geometry" />
        </mxCell>
        <mxCell id="gBENeIbKnuRdoazwzPab-12" style="edgeStyle=none;rounded=0;html=1;dashed=1;labelBackgroundColor=none;startArrow=none;startFill=0;startSize=8;endArrow=open;endFill=0;endSize=16;fontFamily=Verdana;fontSize=12;" edge="1" parent="1" source="gBENeIbKnuRdoazwzPab-3" target="gBENeIbKnuRdoazwzPab-9">
          <mxGeometry relative="1" as="geometry" />
        </mxCell>
        <mxCell id="gBENeIbKnuRdoazwzPab-13" style="edgeStyle=elbowEdgeStyle;rounded=0;html=1;labelBackgroundColor=none;startArrow=none;startFill=0;startSize=8;endArrow=none;endFill=0;endSize=16;fontFamily=Verdana;fontSize=12;" edge="1" parent="1" source="gBENeIbKnuRdoazwzPab-9" target="gBENeIbKnuRdoazwzPab-7">
          <mxGeometry relative="1" as="geometry" />
        </mxCell>
        <mxCell id="gBENeIbKnuRdoazwzPab-14" style="edgeStyle=elbowEdgeStyle;rounded=0;html=1;labelBackgroundColor=none;startArrow=none;startFill=0;startSize=8;endArrow=none;endFill=0;endSize=16;fontFamily=Verdana;fontSize=12;" edge="1" parent="1" source="gBENeIbKnuRdoazwzPab-6" target="gBENeIbKnuRdoazwzPab-5">
          <mxGeometry relative="1" as="geometry" />
        </mxCell>
        <mxCell id="gBENeIbKnuRdoazwzPab-15" style="edgeStyle=orthogonalEdgeStyle;rounded=0;html=1;labelBackgroundColor=none;startArrow=none;startFill=0;startSize=8;endArrow=open;endFill=0;endSize=16;fontFamily=Verdana;fontSize=12;dashed=1;" edge="1" parent="1" source="gBENeIbKnuRdoazwzPab-5" target="gBENeIbKnuRdoazwzPab-4">
          <mxGeometry relative="1" as="geometry">
            <Array as="points">
              <mxPoint x="250" y="170" />
              <mxPoint x="115" y="170" />
            </Array>
          </mxGeometry>
        </mxCell>
        <mxCell id="gBENeIbKnuRdoazwzPab-16" style="edgeStyle=orthogonalEdgeStyle;rounded=0;html=1;dashed=1;labelBackgroundColor=none;startArrow=none;startFill=0;startSize=8;endArrow=open;endFill=0;endSize=16;fontFamily=Verdana;fontSize=12;" edge="1" parent="1" source="gBENeIbKnuRdoazwzPab-7" target="gBENeIbKnuRdoazwzPab-8">
          <mxGeometry relative="1" as="geometry" />
        </mxCell>
        <mxCell id="gBENeIbKnuRdoazwzPab-17" style="edgeStyle=orthogonalEdgeStyle;rounded=0;html=1;labelBackgroundColor=none;startArrow=none;startFill=0;startSize=8;endArrow=none;endFill=0;endSize=16;fontFamily=Verdana;fontSize=12;" edge="1" parent="1" source="gBENeIbKnuRdoazwzPab-3" target="gBENeIbKnuRdoazwzPab-2">
          <mxGeometry relative="1" as="geometry">
            <Array as="points">
              <mxPoint x="595" y="435" />
            </Array>
          </mxGeometry>
        </mxCell>
        <mxCell id="gBENeIbKnuRdoazwzPab-18" style="edgeStyle=orthogonalEdgeStyle;rounded=0;html=1;labelBackgroundColor=none;startArrow=none;startFill=0;startSize=8;endArrow=none;endFill=0;endSize=16;fontFamily=Verdana;fontSize=12;" edge="1" parent="1" source="gBENeIbKnuRdoazwzPab-3" target="gBENeIbKnuRdoazwzPab-1">
          <mxGeometry relative="1" as="geometry">
            <Array as="points">
              <mxPoint x="185" y="435" />
            </Array>
          </mxGeometry>
        </mxCell>
      </root>
    </mxGraphModel>
  </diagram>
  <diagram id="0Ow7JCT5GjLpRwJ48kYp" name="第 8 页">
    <mxGraphModel dx="1422" dy="785" grid="1" gridSize="10" guides="1" tooltips="1" connect="1" arrows="1" fold="1" page="1" pageScale="1" pageWidth="827" pageHeight="1169" math="0" shadow="0">
      <root>
        <mxCell id="0" />
        <mxCell id="1" parent="0" />
      </root>
    </mxGraphModel>
  </diagram>
</mxfile>
